<svg width="32" height="32" viewBox="0 0 32 32" fill="none" xmlns="http://www.w3.org/2000/svg">
  <path d="M16 2.66667L5.33334 7.33334V14.6667C5.33334 21.6 9.92001 28.1067 16 29.3333C22.08 28.1067 26.6667 21.6 26.6667 14.6667V7.33334L16 2.66667ZM16 15.9867H24C23.4533 21.3067 20.3067 26.0133 16 27.2C11.6933 26.0133 8.54667 21.3067 8.00001 15.9867H16V5.00001L24 8.66667V15.9867H16Z" fill="#4F46E5" fillOpacity="0.2"/>
  <path d="M14.6667 17.3333H17.3334V22.6667H14.6667V17.3333ZM14.6667 9.33333H17.3334V14.6667H14.6667V9.33333Z" fill="#4F46E5"/>
  <path d="M16 18.6667C16.7364 18.6667 17.3334 18.0697 17.3334 17.3333C17.3334 16.597 16.7364 16 16 16C15.2637 16 14.6667 16.597 14.6667 17.3333C14.6667 18.0697 15.2637 18.6667 16 18.6667Z" fill="#4F46E5"/>
  <path d="M16 16C16.7364 16 17.3334 15.403 17.3334 14.6667C17.3334 13.9303 16.7364 13.3333 16 13.3333C15.2637 13.3333 14.6667 13.9303 14.6667 14.6667C14.6667 15.403 15.2637 16 16 16Z" fill="#4F46E5"/>
</svg> 