<svg width="32" height="32" viewBox="0 0 32 32" fill="none" xmlns="http://www.w3.org/2000/svg">
  <path d="M16 2.66666C8.63619 2.66666 2.66666 8.63619 2.66666 16C2.66666 23.3638 8.63619 29.3333 16 29.3333C23.3638 29.3333 29.3333 23.3638 29.3333 16C29.3333 8.63619 23.3638 2.66666 16 2.66666ZM16 26.6667C10.1091 26.6667 5.33332 21.8909 5.33332 16C5.33332 10.1091 10.1091 5.33333 16 5.33333C21.8909 5.33333 26.6667 10.1091 26.6667 16C26.6667 21.8909 21.8909 26.6667 16 26.6667Z" fill="#4F46E5" fillOpacity="0.2"/>
  <path d="M16 8C11.5817 8 8 11.5817 8 16C8 20.4183 11.5817 24 16 24C20.4183 24 24 20.4183 24 16C24 11.5817 20.4183 8 16 8ZM16 21.3333C13.0545 21.3333 10.6667 18.9455 10.6667 16C10.6667 13.0545 13.0545 10.6667 16 10.6667C18.9455 10.6667 21.3333 13.0545 21.3333 16C21.3333 18.9455 18.9455 21.3333 16 21.3333Z" fill="#4F46E5" fillOpacity="0.2"/>
  <path d="M23.5286 12.5333H26.6667V16H23.5286C23.04 16 22.6667 15.6 22.6667 15.1V13.4333C22.6667 12.9333 23.04 12.5333 23.5286 12.5333Z" fill="#4F46E5"/>
  <path d="M16 5.33333V8.47133C16 8.96 15.6 9.33333 15.1 9.33333H13.4333C12.9333 9.33333 12.5333 8.96 12.5333 8.47133V5.33333H16Z" fill="#4F46E5"/>
  <path d="M8.47133 12.5333H5.33333V16H8.47133C8.96 16 9.33333 15.6 9.33333 15.1V13.4333C9.33333 12.9333 8.96 12.5333 8.47133 12.5333Z" fill="#4F46E5"/>
  <path d="M16 22.6667V26.6667H12.5333V23.5287C12.5333 23.04 12.9333 22.6667 13.4333 22.6667H15.1C15.6 22.6667 16 23.04 16 23.5287Z" fill="#4F46E5"/>
  <path d="M16 13.3333V18.6667L20 18.6667C20.3682 18.6667 20.6667 18.3682 20.6667 18C20.6667 16.8954 19.7712 16 18.6667 16H18C17.6318 16 17.3333 15.7015 17.3333 15.3333V14C17.3333 13.6318 17.035 13.3333 16.6667 13.3333H16Z" fill="#4F46E5"/>
</svg> 