<svg width="32" height="32" viewBox="0 0 32 32" fill="none" xmlns="http://www.w3.org/2000/svg">
  <path d="M20 4H8C5.79086 4 4 5.79086 4 8V24C4 26.2091 5.79086 28 8 28H24C26.2091 28 28 26.2091 28 24V12L20 4Z" fill="#4F46E5" fillOpacity="0.2"/>
  <path d="M20 4V10C20 11.1046 20.8954 12 22 12H28L20 4Z" fill="#4F46E5"/>
  <path d="M10.4 18.4C9.07452 18.4 8 17.3255 8 16C8 14.6745 9.07452 13.6 10.4 13.6C11.7255 13.6 12.8 14.6745 12.8 16C12.8 17.3255 11.7255 18.4 10.4 18.4ZM8 21.6001H12.8L8 21.6001ZM8 20.8001H12.8L8 20.8001ZM8 20.0001H12.8V20.8001H8V20.0001ZM8 19.2001H12.8V20.0001H8V19.2001ZM8 18.4001H12.8V19.2001H8V18.4001Z" fill="#4F46E5"/>
  <path d="M16 13.6001H24V14.4001H16V13.6001ZM16 15.2001H24V16.0001H16V15.2001ZM16 16.8001H22.4V17.6001H16V16.8001ZM8 21.6001H12.8V23.2001H8V21.6001ZM14.4 21.6001H24V22.4001H14.4V21.6001ZM14.4 18.4001H20.8V19.2001H14.4V18.4001ZM14.4 19.2001H20.8V20.0001H14.4V19.2001ZM14.4 20.0001H22.4V20.8001H14.4V20.0001ZM14.4 20.8001H22.4V21.6001H14.4V20.8001ZM14.4 23.2001H20.8V24.0001H14.4V23.2001Z" fill="#4F46E5"/>
</svg> 