<svg width="32" height="32" viewBox="0 0 32 32" fill="none" xmlns="http://www.w3.org/2000/svg">
  <path d="M24 4H8C6.89543 4 6 4.89543 6 6V22C6 23.1046 6.89543 24 8 24H24C25.1046 24 26 23.1046 26 22V6C26 4.89543 25.1046 4 24 4Z" fill="#4F46E5" fillOpacity="0.2"/>
  <path d="M2.5 24C2.22386 24 2 24.2239 2 24.5V25.5C2 25.7761 2.22386 26 2.5 26H29.5C29.7761 26 30 25.7761 30 25.5V24.5C30 24.2239 29.7761 24 29.5 24H2.5Z" fill="#4F46E5"/>
  <path d="M13 27C13 26.4477 13.4477 26 14 26H18C18.5523 26 19 26.4477 19 27V27C19 27.5523 18.5523 28 18 28H14C13.4477 28 13 27.5523 13 27V27Z" fill="#4F46E5"/>
  <path d="M16 8C15.4477 8 15 8.44772 15 9V19C15 19.5523 15.4477 20 16 20H22C22.5523 20 23 19.5523 23 19V9C23 8.44772 22.5523 8 22 8H16ZM16 10H22V18H16V10Z" fill="#4F46E5"/>
  <path d="M12 12C12 11.4477 11.5523 11 11 11H10C9.44772 11 9 11.4477 9 12V17C9 17.5523 9.44772 18 10 18H11C11.5523 18 12 17.5523 12 17V12Z" fill="#4F46E5"/>
</svg> 