<svg width="32" height="32" viewBox="0 0 32 32" fill="none" xmlns="http://www.w3.org/2000/svg">
  <path d="M16 5.33334C15.0795 5.33334 14.3333 6.07953 14.3333 7.00001C14.3333 7.92048 15.0795 8.66667 16 8.66667C16.9205 8.66667 17.6667 7.92048 17.6667 7.00001C17.6667 6.07953 16.9205 5.33334 16 5.33334Z" fill="#4F46E5"/>
  <path d="M7 14.3333C6.07953 14.3333 5.33334 15.0795 5.33334 16C5.33334 16.9205 6.07953 17.6667 7 17.6667C7.92048 17.6667 8.66667 16.9205 8.66667 16C8.66667 15.0795 7.92048 14.3333 7 14.3333Z" fill="#4F46E5"/>
  <path d="M16 23.3333C15.0795 23.3333 14.3333 24.0795 14.3333 25C14.3333 25.9205 15.0795 26.6667 16 26.6667C16.9205 26.6667 17.6667 25.9205 17.6667 25C17.6667 24.0795 16.9205 23.3333 16 23.3333Z" fill="#4F46E5"/>
  <path d="M25 14.3333C24.0795 14.3333 23.3333 15.0795 23.3333 16C23.3333 16.9205 24.0795 17.6667 25 17.6667C25.9205 17.6667 26.6667 16.9205 26.6667 16C26.6667 15.0795 25.9205 14.3333 25 14.3333Z" fill="#4F46E5"/>
  <path d="M9.33334 9.33334C8.78106 9.33334 8.33334 9.78106 8.33334 10.3333C8.33334 10.8856 8.78106 11.3333 9.33334 11.3333C9.88563 11.3333 10.3333 10.8856 10.3333 10.3333C10.3333 9.78106 9.88563 9.33334 9.33334 9.33334Z" fill="#4F46E5"/>
  <path d="M9.33334 20.6667C8.78106 20.6667 8.33334 21.1144 8.33334 21.6667C8.33334 22.219 8.78106 22.6667 9.33334 22.6667C9.88563 22.6667 10.3333 22.219 10.3333 21.6667C10.3333 21.1144 9.88563 20.6667 9.33334 20.6667Z" fill="#4F46E5"/>
  <path d="M22.6667 9.33334C22.1144 9.33334 21.6667 9.78106 21.6667 10.3333C21.6667 10.8856 22.1144 11.3333 22.6667 11.3333C23.219 11.3333 23.6667 10.8856 23.6667 10.3333C23.6667 9.78106 23.219 9.33334 22.6667 9.33334Z" fill="#4F46E5"/>
  <path d="M22.6667 20.6667C22.1144 20.6667 21.6667 21.1144 21.6667 21.6667C21.6667 22.219 22.1144 22.6667 22.6667 22.6667C23.219 22.6667 23.6667 22.219 23.6667 21.6667C23.6667 21.1144 23.219 20.6667 22.6667 20.6667Z" fill="#4F46E5"/>
  <path d="M16 2.66667C8.63619 2.66667 2.66667 8.63619 2.66667 16C2.66667 23.3638 8.63619 29.3333 16 29.3333C23.3638 29.3333 29.3333 23.3638 29.3333 16C29.3333 8.63619 23.3638 2.66667 16 2.66667ZM16 26.6667C15.0795 26.6667 14.3333 25.9205 14.3333 25C14.3333 24.0795 15.0795 23.3333 16 23.3333C16.9205 23.3333 17.6667 24.0795 17.6667 25C17.6667 25.9205 16.9205 26.6667 16 26.6667ZM17.6667 16.9428L18.6239 23.7187C18.6653 24.0388 18.4555 24.3427 18.1354 24.3841C17.8153 24.4256 17.5114 24.2158 17.47 23.8957L16.5128 17.1198C16.471 16.7949 16.6848 16.4869 17.0097 16.4455L23.7856 15.4883C24.1057 15.4469 24.4096 15.6567 24.451 15.9768C24.4925 16.2969 24.2827 16.6008 23.9626 16.6422L17.6667 17.5245V16.9428ZM17.6667 16.9428V16H25C25.9205 16 26.6667 16.7462 26.6667 17.6667C26.6667 18.5871 25.9205 19.3333 25 19.3333C24.0795 19.3333 23.3333 18.5871 23.3333 17.6667V17.5245L17.6667 16.9428ZM25 17.6667C25.9205 17.6667 26.6667 16.9205 26.6667 16C26.6667 15.0795 25.9205 14.3333 25 14.3333C24.0795 14.3333 23.3333 15.0795 23.3333 16C23.3333 16.9205 24.0795 17.6667 25 17.6667ZM22.6667 10.3333C22.1144 10.3333 21.6667 9.88563 21.6667 9.33334C21.6667 8.78106 22.1144 8.33334 22.6667 8.33334C23.219 8.33334 23.6667 8.78106 23.6667 9.33334C23.6667 9.88563 23.219 10.3333 22.6667 10.3333ZM16 5.33334C16.9205 5.33334 17.6667 6.07953 17.6667 7.00001C17.6667 7.92048 16.9205 8.66667 16 8.66667C15.0795 8.66667 14.3333 7.92048 14.3333 7.00001C14.3333 6.07953 15.0795 5.33334 16 5.33334ZM9.33334 10.3333C9.88563 10.3333 10.3333 9.88563 10.3333 9.33334C10.3333 8.78106 9.88563 8.33334 9.33334 8.33334C8.78106 8.33334 8.33334 8.78106 8.33334 9.33334C8.33334 9.88563 8.78106 10.3333 9.33334 10.3333ZM7 14.3333C7.92048 14.3333 8.66667 15.0795 8.66667 16C8.66667 16.9205 7.92048 17.6667 7 17.6667C6.07953 17.6667 5.33334 16.9205 5.33334 16C5.33334 15.0795 6.07953 14.3333 7 14.3333ZM9.33334 21.6667C8.78106 21.6667 8.33334 21.1144 8.33334 20.6667C8.33334 20.1144 8.78106 19.6667 9.33334 19.6667C9.88563 19.6667 10.3333 20.1144 10.3333 20.6667C10.3333 21.1144 9.88563 21.6667 9.33334 21.6667ZM22.6667 21.6667C22.1144 21.6667 21.6667 21.1144 21.6667 20.6667C21.6667 20.1144 22.1144 19.6667 22.6667 19.6667C23.219 19.6667 23.6667 20.1144 23.6667 20.6667C23.6667 21.1144 23.219 21.6667 22.6667 21.6667Z" fill="#4F46E5" fill-opacity="0.2"/>
</svg> 