<svg width="32" height="32" viewBox="0 0 32 32" fill="none" xmlns="http://www.w3.org/2000/svg">
  <path d="M16 2.66666C8.63621 2.66666 2.66668 8.63619 2.66668 16C2.66668 23.3638 8.63621 29.3333 16 29.3333C23.3638 29.3333 29.3333 23.3638 29.3333 16C29.3333 8.63619 23.3638 2.66666 16 2.66666ZM16 26.6667C10.1091 26.6667 5.33334 21.8909 5.33334 16C5.33334 10.1091 10.1091 5.33333 16 5.33333C21.8909 5.33333 26.6667 10.1091 26.6667 16C26.6667 21.8909 21.8909 26.6667 16 26.6667Z" fill="#4F46E5" fillOpacity="0.2"/>
  <path d="M20.2426 11.7574C19.1174 10.6321 17.5913 10 16 10C14.4087 10 12.8826 10.6321 11.7574 11.7574C10.6321 12.8826 10 14.4087 10 16C10 17.5913 10.6321 19.1174 11.7574 20.2426C12.8826 21.3679 14.4087 22 16 22C17.5913 22 19.1174 21.3679 20.2426 20.2426C21.3679 19.1174 22 17.5913 22 16C22 14.4087 21.3679 12.8826 20.2426 11.7574ZM18.8284 18.8284C18.0783 19.5786 17.0609 20 16 20C14.9391 20 13.9217 19.5786 13.1716 18.8284C12.4214 18.0783 12 17.0609 12 16C12 14.9391 12.4214 13.9217 13.1716 13.1716C13.9217 12.4214 14.9391 12 16 12C17.0609 12 18.0783 12.4214 18.8284 13.1716C19.5786 13.9217 20 14.9391 20 16C20 17.0609 19.5786 18.0783 18.8284 18.8284Z" fill="#4F46E5" fillOpacity="0.2"/>
  <rect x="15" y="6" width="2" height="4" rx="1" fill="#4F46E5"/>
  <rect x="15" y="22" width="2" height="4" rx="1" fill="#4F46E5"/>
  <rect x="6" y="15" width="4" height="2" rx="1" fill="#4F46E5"/>
  <rect x="22" y="15" width="4" height="2" rx="1" fill="#4F46E5"/>
  <rect x="8.22183" y="8.22183" width="4" height="2" rx="1" transform="rotate(-45 8.22183 8.22183)" fill="#4F46E5"/>
  <rect x="21.0711" y="21.0711" width="4" height="2" rx="1" transform="rotate(-45 21.0711 21.0711)" fill="#4F46E5"/>
  <rect x="21.0711" y="10.9289" width="2" height="4" rx="1" transform="rotate(-45 21.0711 10.9289)" fill="#4F46E5"/>
  <rect x="8.22183" y="23.7782" width="2" height="4" rx="1" transform="rotate(-45 8.22183 23.7782)" fill="#4F46E5"/>
  <circle cx="16" cy="16" r="2" fill="#4F46E5"/>
</svg> 